PathFileType  4	(X/Y/Z) C:\Users\antoi\Documents\MyRepositories\mobilecap\ResultsAnalysis
DataRate	CameraRate	NumFrames	NumMarkers	Units	OrigDataRate	OrigDataStartFrame	OrigNumFrames
100.0	100.0	5	51	mm	100.0	68	269
Frame#	Time	r_knee			r_shank_antsup			r_ankle			r_calc			r_5meta			r_toe			L_knee			L_shank_antsup			L_ankle			L_calc			L_5meta			L_toe			r_sh2			r_sh3			r_sh4			L_sh2			L_sh3			r_thigh1			r_thigh2			r_thigh3			r_thigh4			r_thigh5			L_thigh1			L_thigh2			L_thigh3			L_thigh4			r.ASIS			r.PSIS			L.ASIS			L.PSIS			C7			R_Shoulder			L_Shoulder			R_Sternum			L_Sternum			R_humerus			R_elbow_med			R_elbow_lat			R_forearm			R_wrist_radius			R_wrist_ulna			L_humerus			L_elbow_med			L_elbow_lat			L_forearm			L_wrist_radius			L_wrist_ulna			R_HJC			L_HJC			R_HJC_reg			L_HJC_reg			
		X1	Y1	Z1	X2	Y2	Z2	X3	Y3	Z3	X4	Y4	Z4	X5	Y5	Z5	X6	Y6	Z6	X7	Y7	Z7	X8	Y8	Z8	X9	Y9	Z9	X10	Y10	Z10	X11	Y11	Z11	X12	Y12	Z12	X13	Y13	Z13	X14	Y14	Z14	X15	Y15	Z15	X16	Y16	Z16	X17	Y17	Z17	X18	Y18	Z18	X19	Y19	Z19	X20	Y20	Z20	X21	Y21	Z21	X22	Y22	Z22	X23	Y23	Z23	X24	Y24	Z24	X25	Y25	Z25	X26	Y26	Z26	X27	Y27	Z27	X28	Y28	Z28	X29	Y29	Z29	X30	Y30	Z30	X31	Y31	Z31	X32	Y32	Z32	X33	Y33	Z33	X34	Y34	Z34	X35	Y35	Z35	X36	Y36	Z36	X37	Y37	Z37	X38	Y38	Z38	X39	Y39	Z39	X40	Y40	Z40	X41	Y41	Z41	X42	Y42	Z42	X43	Y43	Z43	X44	Y44	Z44	X45	Y45	Z45	X46	Y46	Z46	X47	Y47	Z47	X48	Y48	Z48	X49	Y49	Z49	X50	Y50	Z50	X51	Y51	Z51	

68	0.67000000	-1086.40926	765.36462	-436.86752	-1077.53225	661.76830	-446.37315	-1277.67956	400.22267	-454.54414	-1342.30246	365.33310	-502.03304	-1161.91353	351.38674	-412.31801	-1128.83802	378.86159	-466.83430	-1077.73309	767.07646	-724.90056	-1063.67359	667.61207	-708.27600	-1268.39320	403.63582	-720.13511	-1345.54051	361.23255	-679.64227	-1165.59696	350.98150	-757.34227	-1121.27439	374.57518	-699.40319	-1131.92311	561.66077	-449.81297	-1134.82792	689.23482	-405.36212	-1194.65444	590.52451	-403.05433	-1123.46984	716.61413	-757.71996	-1184.99704	610.01181	-765.47631	-1092.14620	1045.68739	-406.31439	-1063.86147	940.66805	-424.10090	-1106.51504	898.05956	-395.11461	-1199.57490	1010.93356	-392.50287	-1161.24192	902.52850	-409.93114	-1055.05820	1021.83546	-736.22736	-1019.93502	889.02904	-710.13279	-1150.88576	990.05501	-780.57747	-1118.21263	864.15497	-749.30065	-1077.90750	1214.49051	-451.34129	-1268.94828	1290.01796	-538.14489	-1069.60400	1218.11877	-703.29329	-1263.47904	1290.33795	-634.64686	-1092.29059	1726.22640	-569.41202	-1037.18271	1671.44970	-399.74262	-1003.29962	1667.78132	-712.13697	-1000.00648	1618.74563	-536.84679	-998.20141	1619.31653	-579.54126	-1020.06156	1536.40729	-350.89780	-1124.94588	1346.47306	-382.68922	-1102.86223	1354.60211	-319.98330	-1047.65084	1287.68455	-306.30479	-993.78956	1128.73766	-349.77109	-1026.01133	1125.38697	-310.91663	-976.36779	1528.98901	-761.37754	-1064.39055	1338.10130	-735.98695	-1023.20975	1346.55308	-803.90957	-976.17582	1287.05947	-804.47919	-954.18067	1107.56279	-780.62469	-977.76817	1117.43650	-827.15440	-1176.46115	1146.81216	-481.33930	-1167.26989	1149.53373	-670.65917	-1165.26114	1156.58058	-492.05676	-1155.84658	1157.13222	-658.18547	
69	0.68000000	-1082.87696	763.34935	-437.14963	-1074.47754	659.88884	-446.49976	-1277.52741	400.19493	-454.57449	-1342.30005	365.37014	-501.98937	-1161.90499	351.26916	-412.35097	-1128.80380	378.66678	-466.77975	-1073.50126	764.51172	-724.46126	-1059.96754	665.03636	-708.04433	-1268.15912	403.75418	-720.16936	-1345.52268	361.32035	-679.59840	-1165.55830	350.87163	-757.32162	-1121.20982	374.45080	-699.39041	-1129.87741	560.01198	-450.00737	-1131.35141	687.78227	-405.50205	-1192.33221	589.48032	-403.10510	-1119.28863	714.91269	-757.57915	-1182.06062	608.98715	-765.55039	-1091.25979	1043.39813	-406.05758	-1062.02859	938.58233	-423.31405	-1104.53494	895.65731	-395.47323	-1198.38932	1007.58714	-393.16814	-1159.16101	899.62049	-410.35754	-1053.55529	1019.62915	-736.78102	-1016.74666	887.17632	-710.28628	-1148.85608	986.90591	-780.69960	-1114.88551	861.27715	-749.28724	-1077.41126	1210.51323	-451.26400	-1267.54525	1287.59680	-538.28585	-1069.05008	1213.74543	-703.81088	-1261.98208	1287.77473	-634.78052	-1086.03439	1722.06293	-568.85524	-1031.22799	1666.47602	-399.23655	-996.81824	1662.35000	-711.01778	-994.21770	1613.61544	-535.53698	-992.37917	1614.54687	-577.14292	-1013.10390	1531.72743	-350.72798	-1115.55018	1340.33708	-381.83095	-1093.26511	1348.87059	-319.25282	-1036.83186	1282.78190	-306.17179	-979.60691	1125.38406	-350.49072	-1011.59787	1121.05702	-311.63665	-968.33409	1524.24785	-759.45892	-1053.15855	1331.81847	-734.99646	-1011.28810	1341.10167	-802.49561	-962.61936	1282.71708	-801.96605	-936.69836	1103.80501	-776.77093	-959.80030	1112.96439	-823.88013	-1176.42983	1143.65143	-481.40262	-1167.27645	1146.08496	-670.72841	-1165.36511	1153.11891	-492.11466	-1155.76483	1153.42545	-658.62364	
70	0.69000000	-1079.29103	761.16602	-437.35460	-1071.21609	657.81330	-446.80470	-1277.35464	400.14352	-454.78624	-1342.30624	365.41884	-501.92336	-1161.95736	351.21652	-412.37675	-1128.69765	378.45554	-466.72862	-1069.22896	762.21779	-724.17529	-1056.08308	662.44229	-707.91384	-1267.87717	403.97262	-720.24810	-1345.45895	361.55811	-679.55576	-1165.53451	350.79947	-757.32540	-1121.09665	374.30679	-699.42177	-1127.76755	558.44240	-450.03105	-1127.82715	686.48921	-405.80024	-1190.16081	588.92618	-402.96267	-1115.03407	713.03607	-757.24561	-1179.04448	607.91464	-765.39359	-1090.25701	1040.99686	-405.89218	-1060.03171	936.25684	-423.17368	-1102.33212	893.18491	-395.79735	-1197.14219	1004.17180	-393.59226	-1156.85725	896.63621	-410.92494	-1051.89079	1017.34232	-736.97308	-1013.57399	885.27960	-710.33122	-1146.65472	983.73123	-780.91192	-1111.54155	858.33221	-749.14040	-1076.81433	1206.48709	-451.10828	-1266.12108	1285.23231	-538.76049	-1068.04567	1209.35949	-704.08751	-1260.32458	1285.15700	-635.04754	-1079.78150	1717.71390	-568.33618	-1025.32919	1661.45223	-398.79736	-990.37610	1656.84331	-709.92602	-988.81544	1608.37909	-534.56038	-986.52610	1609.82171	-575.97109	-1006.00185	1527.09670	-350.59098	-1105.64476	1334.16923	-381.01496	-1083.04369	1342.97735	-318.66230	-1025.11394	1278.06831	-305.98764	-964.37456	1122.41920	-351.24243	-996.08108	1116.95230	-312.54265	-960.27791	1519.57743	-757.58568	-1041.18749	1325.42680	-733.96854	-998.87426	1335.75293	-801.23161	-948.49438	1278.64446	-799.54245	-918.12439	1100.60117	-772.74722	-940.75198	1108.80229	-820.01868	-1176.36277	1140.49205	-481.50620	-1166.92832	1142.61977	-670.82170	-1165.38265	1149.83661	-492.14655	-1155.34091	1149.70472	-658.92136	
71	0.70000000	-1075.63629	759.26337	-437.39540	-1067.92572	655.65854	-447.10100	-1277.04148	400.51362	-455.11700	-1342.23002	365.47607	-501.88491	-1162.00997	351.16524	-412.30295	-1128.56631	378.24679	-466.66097	-1064.70860	760.01798	-724.26705	-1052.11303	659.78557	-707.74595	-1267.46093	404.28206	-720.31768	-1345.30081	362.06478	-679.51370	-1165.50903	350.76581	-757.34774	-1120.92122	374.08705	-699.50928	-1125.59793	557.00211	-450.08516	-1124.12853	685.34725	-406.08868	-1187.71329	588.32174	-403.16058	-1110.48715	711.36494	-757.11552	-1175.87730	606.89131	-765.01151	-1089.07571	1038.53035	-405.65507	-1058.05771	933.82159	-423.66657	-1099.91103	890.59070	-396.05953	-1195.70139	1000.69345	-393.88790	-1154.32171	893.61186	-411.43647	-1049.89017	1014.99233	-736.67855	-1010.31675	883.37318	-710.36814	-1144.31403	980.35297	-780.87061	-1108.03008	855.37527	-748.84121	-1076.02687	1202.55644	-451.12494	-1264.65606	1282.80103	-539.20974	-1066.61947	1205.03280	-703.75461	-1258.52810	1282.48283	-635.34400	-1073.60812	1713.25321	-567.95417	-1019.45147	1656.43284	-398.22488	-983.99319	1651.32483	-708.85529	-983.78167	1603.00793	-533.92161	-981.30273	1604.45754	-575.44666	-998.74748	1522.58147	-350.44292	-1095.18808	1327.97498	-380.13016	-1072.27280	1337.01131	-318.11474	-1012.54565	1273.62725	-305.90706	-948.11928	1119.90467	-351.98094	-979.41253	1113.42292	-313.39728	-952.08733	1515.00485	-755.84856	-1028.64715	1319.03704	-732.73835	-986.03256	1330.57925	-800.09820	-933.93890	1274.80213	-797.20187	-898.56404	1098.01861	-768.41123	-920.62874	1105.16004	-815.81900	-1176.09316	1137.35300	-481.50000	-1166.18388	1139.16139	-670.79449	-1165.03931	1146.75534	-492.31005	-1154.42595	1146.20450	-658.83065	
72	0.71000000	-1071.63214	757.56559	-437.31207	-1064.66444	653.39401	-447.30155	-1276.56800	401.40924	-455.35032	-1342.10388	365.54176	-501.90105	-1162.01775	351.02270	-412.20736	-1128.46158	378.03780	-466.57429	-1059.86172	757.56389	-724.27967	-1048.00117	657.07245	-707.37800	-1266.84128	404.71840	-720.43211	-1345.02902	362.88064	-679.47419	-1165.42675	350.70704	-757.35506	-1120.65652	373.75125	-699.63457	-1123.42630	555.44882	-450.18855	-1120.45551	683.82964	-406.28095	-1185.08144	587.39852	-403.67839	-1105.56170	709.77049	-757.08169	-1172.44571	605.98443	-764.80817	-1087.86845	1036.07049	-405.25304	-1056.09163	931.69996	-423.64062	-1097.30113	887.90372	-396.34331	-1194.03070	997.24671	-394.09256	-1151.64664	890.57192	-411.80665	-1047.74961	1012.59157	-736.24884	-1006.79793	881.49583	-710.56547	-1141.89106	976.82156	-780.69107	-1104.23168	852.37718	-748.44121	-1075.10645	1198.67876	-451.27929	-1263.07638	1280.20337	-539.41347	-1065.25573	1200.68119	-703.36050	-1256.59614	1279.72307	-635.65566	-1067.50659	1708.67719	-567.66150	-1013.56508	1651.38394	-397.58928	-977.68847	1645.83036	-707.87581	-978.75891	1597.45853	-533.39680	-976.22511	1598.96412	-574.99487	-991.29182	1518.19110	-350.33924	-1084.03627	1321.56819	-379.33974	-1061.00513	1331.16850	-317.42423	-999.21309	1269.43683	-305.88028	-930.82750	1117.84299	-352.74430	-961.62935	1110.43995	-314.30481	-943.72358	1510.62947	-754.36371	-1015.66214	1312.84128	-731.41213	-972.83688	1325.56202	-798.76296	-918.94131	1271.29110	-794.72563	-877.90380	1096.13806	-763.79214	-899.50858	1102.21185	-811.67854	-1175.62132	1134.17551	-481.43743	-1165.37908	1135.64232	-670.71734	-1164.52571	1143.54836	-492.63189	-1153.34183	1142.71978	-658.75995	
